PathFileType	4	(X/Y/Z)	Patient3_L_KneeIso_Processed.trc
DataRate	CameraRate	NumFrames	NumMarkers	Units	OrigDataRate	OrigDataStartFrame	OrigNumFrames
100.000000000000	100.000000000000	4	33	mm	100.000000000000	76	       301
Frame#	Time	L.Toe			R.Toe			L.Midfoot.Superior			Neck			R.Midfoot.Superior			R.Shoulder			L.Shank.Lateral			R.Wrist			L.Shoulder			R.Midfoot.Lateral			L.Heel			R.Heel			R.Patella			L.Wrist			R.Shank.Inferior			R.Shank.Lateral			L.Elbow			L.Asis			L.Shank.Inferior			L.Patella			L.Thigh.Lateral			L.Thigh.Superior			R.Elbow			R.Shank.Superior			L.Thigh.Inferior			R.Thigh.Superior			L.Midfoot.Lateral			R.Thigh.Lateral			L.Shank.Superior			R.Thigh.Inferior			Sacral			R.Asis			Sternum			
		X1	Y1	Z1	X2	Y2	Z2	X3	Y3	Z3	X4	Y4	Z4	X5	Y5	Z5	X6	Y6	Z6	X7	Y7	Z7	X8	Y8	Z8	X9	Y9	Z9	X10	Y10	Z10	X11	Y11	Z11	X12	Y12	Z12	X13	Y13	Z13	X14	Y14	Z14	X15	Y15	Z15	X16	Y16	Z16	X17	Y17	Z17	X18	Y18	Z18	X19	Y19	Z19	X20	Y20	Z20	X21	Y21	Z21	X22	Y22	Z22	X23	Y23	Z23	X24	Y24	Z24	X25	Y25	Z25	X26	Y26	Z26	X27	Y27	Z27	X28	Y28	Z28	X29	Y29	Z29	X30	Y30	Z30	X31	Y31	Z31	X32	Y32	Z32	X33	Y33	Z33	

76	1.750000000000	216.074174312586	328.823505513360	344.759629275451	690.048243444903	41.608008832366	588.844881550746	255.027463108645	451.674502121898	362.282115181378	461.113719882576	1484.962079503871	647.305852347572	565.147532980642	91.193293895965	590.135761054994	484.673129869837	1436.816975399002	794.721934923157	492.597862067955	574.635961410457	330.502024481189	571.510699337471	1165.058519312851	1114.365703554331	511.157020400308	1474.399499364814	509.303810328266	478.362354059718	30.519312811289	638.487724911832	180.250562658171	616.027612813027	398.088902405935	391.165395454664	37.136519177316	580.224687471082	601.661525871749	492.973075423221	649.550654701006	664.817315763911	1317.428798060471	504.766567470881	532.609281990716	214.668950431008	622.936247699301	485.844836783807	341.888272735857	707.131013385899	548.274108310497	1186.610963755654	323.838829983578	586.352493856430	991.186773111996	454.326969736392	394.845828210032	494.234614734653	376.704052860118	698.420307605431	504.136080557687	412.948804486535	601.833413805317	705.252742992927	361.434544818607	671.867585303402	786.106342984512	432.189301531244	388.818615375408	1128.429604560801	939.002235036092	569.419566368794	385.388788162133	655.900863423067	703.765981796518	660.442693177590	420.799451645787	629.056851293924	711.848145218035	693.448663443705	184.991186152446	540.964130424019	330.194956476397	539.814974035314	656.475107617309	741.447501998980	556.405135120108	481.413444322640	378.944484890674	615.404020605425	599.593665994739	668.625282840820	416.965213913985	1007.418780605799	593.823207265062	590.254009595107	971.157445503659	717.485786187458	598.140473556174	1392.248253533713	650.960015000087	
77	1.760000000000	213.826036456283	332.450947028427	346.077154604566	690.046287344325	41.621235940777	588.848566428435	254.143608433589	454.831718613463	363.353435009235	461.527892883016	1484.959382526276	647.299732815231	565.143389314011	91.200483497777	590.145054033591	485.116781273393	1436.781923140718	794.687770980632	492.846779065133	575.894138338133	330.564564557637	571.619492884086	1165.088401367213	1114.357435668797	511.518570957122	1474.392379633191	509.266914714709	478.360386330407	30.510972923937	638.490998020115	181.317977583516	620.012473860737	399.411501716994	391.162193314213	37.131598047494	580.232388644773	601.527073570297	492.989151339533	649.575457376396	665.057821684162	1317.313492963561	504.641333946228	532.552359235379	214.688413686901	622.980605971939	485.775205306722	341.899937203664	707.223291639473	548.368763904651	1186.619948531554	323.726210352945	586.168277217529	990.973555544221	454.272941784596	394.601059486636	496.303395732524	377.255482927917	698.391426148587	504.198923547358	412.496219390223	601.755918549098	705.381058641511	361.012724877239	671.728336179820	786.161815621684	431.888579399454	388.977333375155	1128.483934989174	938.941916714493	569.320230737002	385.418666756223	655.940551450993	703.809462632597	660.543970609218	420.377847126408	628.971079539164	711.845254733183	693.458630202082	184.905863267994	544.865386033965	331.549927582274	539.776592215158	656.489019141832	741.561550946486	556.129334119332	482.171346706604	378.846059970974	615.292501486148	599.596490748914	668.649870512640	416.916523002094	1007.470157882122	593.915362237816	590.264266899213	971.127373455048	717.447123504486	598.489395437200	1392.126729242115	650.864500551853	
78	1.770000000000	211.677880396362	335.909718733402	347.313904204272	690.044627165015	41.634732177539	588.851181884823	253.308227288891	457.818530419028	364.346650274567	461.946935707409	1484.956199527716	647.297434115980	565.139180018933	91.208052370658	590.153418843193	485.568183188203	1436.744995148275	794.657043563149	493.094081974607	577.073253688368	330.620661365396	571.754079626057	1165.113050737767	1114.347300554710	511.877308030321	1474.378967605924	509.230828589272	478.358599161344	30.503238248533	638.493924274781	182.380385969491	623.784811238242	400.624252465426	391.159034318150	37.127535794587	580.239777253090	601.419214955801	493.001644556031	649.600816093913	665.280817931043	1317.177515061029	504.510569794518	532.503764241506	214.704905379412	623.024122417308	485.727408817634	341.911143551084	707.313568904853	548.424354762165	1186.617489891857	323.615254353907	585.977860438262	990.769312451509	454.224658526873	394.382595867186	498.256351654479	377.769099374230	698.355620405555	504.249672026267	412.102283117714	601.689419042218	705.497584634805	360.627393271731	671.591895901887	786.212688006662	431.621575127467	389.144978395945	1128.541452428711	938.897116172604	569.238400623063	385.441190458228	655.976322237017	703.845312855010	660.633518530009	420.012489031416	628.902553522854	711.845884581900	693.477525847478	184.856844329995	548.565198749943	332.802218708981	539.752762425698	656.499222926045	741.672020528479	555.865733714313	482.882186829631	378.773411918661	615.205338757408	599.601905059729	668.680250167138	416.867684316992	1007.503858766453	594.013102909737	590.267142147605	971.101168859947	717.412957000824	598.834989063764	1391.990928383614	650.765348657349	
79	1.780000000000	209.616077169228	339.220932667609	348.459941088394	690.043378931050	41.647675382969	588.852773213098	252.512521756162	460.657042127033	365.255543976583	462.368273821754	1484.952880497226	647.298495114018	565.135193486690	91.215493230027	590.160482078569	486.024189297627	1436.707137941024	794.629384540514	493.339418847007	578.180083915055	330.677579744347	571.914233089324	1165.132073916861	1114.335275399996	512.230438952751	1474.359900860166	509.195301237277	478.357100899806	30.496385600488	638.496480204060	183.430666512771	627.370717511709	401.720535579725	391.156196559965	37.124449840142	580.246504213183	601.338340140432	493.010651450654	649.624371949687	665.485029944968	1317.023225543618	504.374323681830	532.464795872945	214.718155284955	623.064108438607	485.703029851849	341.921907426587	707.398421833649	548.440231773632	1186.603816632106	323.506932093031	585.786320414070	990.575726262538	454.182049715074	394.181681785432	500.106003575324	378.245490741346	698.307059453427	504.282779887792	411.780056261815	601.636914920792	705.599445051528	360.285765293827	671.460456176843	786.254856120770	431.398364670331	389.321032849141	1128.602272491031	938.867773170474	569.175688896071	385.456736839509	656.006163608474	703.872425757761	660.706146344235	419.716249582807	628.851430364427	711.849632009391	693.503029635558	184.838997370300	552.088961837523	333.943679575960	539.742806232069	656.505441519532	741.775478843394	555.607513818047	483.547403439607	378.733461813375	615.142718154941	599.609358197232	668.713621056612	416.820722650569	1007.522115161234	594.114056980799	590.264617057237	971.078230200136	717.382677773501	599.175335895178	1391.843445237596	650.662852832608	
